<?xml version="1.0" standalone="no"?>
<!DOCTYPE svg PUBLIC "-//W3C//DTD SVG 20010904//EN"
 "http://www.w3.org/TR/2001/REC-SVG-20010904/DTD/svg10.dtd">
<svg version="1.0" xmlns="http://www.w3.org/2000/svg"
 width="456.000000pt" height="456.000000pt" viewBox="0 0 456.000000 456.000000"
 preserveAspectRatio="xMidYMid meet">
<metadata>
Created by potrace 1.14, written by Peter Selinger 2001-2017
</metadata>
<g transform="translate(0.000000,456.000000) scale(0.100000,-0.100000)"
fill="#000000" stroke="none">
<path d="M0 2280 l0 -2280 2280 0 2280 0 0 2280 0 2280 -2280 0 -2280 0 0
-2280z m2725 1495 c330 -52 645 -175 862 -338 l42 -32 1 -153 0 -152 -53 53
c-260 259 -688 421 -1176 445 -538 26 -987 -80 -1214 -288 -42 -38 -57 -60
-66 -94 -24 -95 -7 -226 40 -319 70 -136 205 -226 465 -310 195 -63 342 -87
824 -132 520 -49 745 -98 985 -215 198 -96 298 -217 341 -409 21 -91 14 -209
-16 -295 -27 -79 -132 -278 -179 -341 -167 -222 -436 -349 -866 -412 -170 -24
-556 -24 -715 0 -377 59 -670 178 -932 380 l-78 59 0 144 c0 102 3 144 11 144
7 0 51 -37 98 -82 145 -139 333 -253 546 -330 281 -102 498 -139 820 -139 532
0 955 130 1166 358 32 34 49 105 49 206 0 239 -140 422 -415 540 -216 93 -531
163 -866 192 -611 53 -848 100 -1085 216 -114 56 -221 155 -266 247 -29 59
-33 77 -36 168 -6 149 26 245 149 450 88 147 184 232 351 308 147 68 378 126
584 145 138 13 507 5 629 -14z"/>
</g>
</svg>
